<svg xmlns="http://www.w3.org/2000/svg" xmlns:xlink="http://www.w3.org/1999/xlink" width="391" height="240" viewBox="0 0 391 240"><defs><clipPath id="a"><path d="M48.7,32.94s17-18.62,28.71-26.34c3.74-2.46,31.59-17,49.46,33C136.66,67,136.83,87.4,114.59,96.1c-13.31,5.21-8.56,15-8.56,15" style="fill:none"/></clipPath><linearGradient id="b" x1="-1350.81" y1="636.44" x2="-1349.81" y2="636.44" gradientTransform="matrix(115.67, 85.5, 86.2, -114.73, 101523.88, 188595.57)" gradientUnits="userSpaceOnUse"><stop offset="0" stop-color="#dac04e"/><stop offset="1" stop-color="#a58f2f"/></linearGradient><clipPath id="c"><path d="M317.83,43.72h35.63c3,0,5.41,2,5.41,4.39h0c0,2.42-2.42,4.38-5.41,4.38h-28Z" style="fill:none"/></clipPath><linearGradient id="d" x1="-1350.66" y1="636.58" x2="-1349.66" y2="636.58" gradientTransform="matrix(116.63, 86.21, 86.92, -115.68, 102453.69, 190067.82)" gradientUnits="userSpaceOnUse"><stop offset="0" stop-color="#d5b948"/><stop offset="1" stop-color="#a58f2f"/></linearGradient><clipPath id="e"><path d="M152.76,130.94v70.59c0,17.41-17.41,23.64-38.89,23.64h0C92.4,225.18,75,218.94,75,201.53V130.11" style="fill:none"/></clipPath><linearGradient id="f" x1="-1350.77" y1="636.46" x2="-1349.77" y2="636.46" gradientTransform="matrix(115.16, 85.12, 85.82, -114.22, 101020.96, 187834.73)" xlink:href="#b"/><clipPath id="g"><path d="M312.73,131.8v70.59c0,17.41-17.41,23.64-38.89,23.64h0C252.37,226,235,219.8,235,202.39V131" style="fill:none"/></clipPath><linearGradient id="h" x1="-1350.54" y1="636.63" x2="-1349.54" y2="636.63" gradientTransform="matrix(115.16, 85.12, 85.82, -114.22, 101063.16, 187777.86)" xlink:href="#b"/><clipPath id="i"><path d="M120,34.53C135.19,59,133.58,79.59,113.4,90.4c-12.08,6.48-5.43,15-5.43,15" style="fill:none"/></clipPath><linearGradient id="j" x1="-1350.49" y1="636.56" x2="-1349.49" y2="636.56" gradientTransform="matrix(111.79, 82.63, 83.31, -110.88, 98072.16, 182257.55)" xlink:href="#d"/><clipPath id="k"><path d="M249.52,17.21s-66.15-.29-158,2.73S3,55.63,2.87,102.56V215.43c0,9.55,8.34,13.4,18.63,13.4s18.64-3.85,18.64-13.4c0,0,2.37-32.25,4.42-51.87C49.15,92.29,156.9,175.28,220,171.41c57.3-3.52,122.43-23.14,122.43-69.76s-29.57-84.43-92.86-84.43Z" style="fill:none"/></clipPath><linearGradient id="l" x1="-1350.76" y1="636.51" x2="-1349.65" y2="636.51" gradientTransform="matrix(116.25, 85.93, 86.64, -115.31, 102020.94, 189580.39)" xlink:href="#b"/><clipPath id="m"><path d="M5.38,105.66C5.48,116.26,4,208.84,9.87,214.4,8,210.3,12.07,120.6,12,115l-.05-3.3V107a48,48,0,0,1-6.61-3Z" style="fill:none"/></clipPath><linearGradient id="n" x1="-1351.96" y1="639.6" x2="-1350.96" y2="639.6" gradientTransform="matrix(76.97, 111.27, 112.18, -76.35, 32269.64, 199348.45)" gradientUnits="userSpaceOnUse"><stop offset="0" stop-color="#fde4db"/><stop offset="1" stop-color="#d6afa3"/></linearGradient><clipPath id="o"><path d="M249.49,19.32S183.89,19,94,22,5.48,57.79,5.48,102l0,1.63a46.88,46.88,0,0,0,6.45,3c0-41.8,1.81-72.47,88.52-75.32,89.89-3,155.5-2.67,155.5-2.67,34.38,0,58,11.51,72.78,29.47-13.57-23.24-39.25-38.79-79.26-38.79Z" style="fill:none"/></clipPath><linearGradient id="p" x1="-1353.1" y1="638.78" x2="-1351.96" y2="638.78" gradientTransform="matrix(89.69, 129.65, 130.72, -88.96, 37959.52, 232244.75)" xlink:href="#n"/><clipPath id="q"><path d="M177.18,163.33V213.6c0,17.41-17.42,23.66-38.89,23.66h0c-21.48,0-38.89-6.25-38.89-23.66V137.08" style="fill:none"/></clipPath><linearGradient id="r" x1="-1350.76" y1="636.46" x2="-1349.76" y2="636.46" gradientTransform="matrix(115.1, 85.08, 85.78, -114.16, 100965.92, 187739.75)" xlink:href="#b"/><clipPath id="s"><path d="M337.19,128.78v82.85c0,17.4-17.42,23.65-38.89,23.65h0c-21.48,0-38.88-6.25-38.88-23.65V164" style="fill:none"/></clipPath><linearGradient id="t" x1="-1350.57" y1="636.62" x2="-1349.57" y2="636.62" gradientTransform="matrix(115.5, 85.38, 86.08, -114.56, 101373.33, 188325.44)" xlink:href="#b"/><clipPath id="u"><path d="M76,25.75S98.74,10.21,113.13,4.88c4.59-1.7,37.68-10.37,43,46.31,2.93,31-2.35,52.47-28,56.35-15.35,2.33-13,13.68-13,13.68" style="fill:none"/></clipPath><linearGradient id="v" x1="-1350.78" y1="636.45" x2="-1349.78" y2="636.45" gradientTransform="matrix(115.32, 85.25, 85.94, -114.38, 101222.73, 188026.95)" xlink:href="#b"/><clipPath id="w"><path d="M99.27,20.64c25.8-16,40.12-7.82,40.12-7.82a26.68,26.68,0,0,0-26.62-5.76c-14.34,5.33-42,25-42,25S67,38.65,74.44,37.22c0,0,16.23-11.25,24.83-16.58Z" style="fill:none"/></clipPath><linearGradient id="x" x1="-1353.25" y1="638.55" x2="-1352.25" y2="638.55" gradientTransform="matrix(91.66, 132.51, 133.6, -90.92, 38820.31, 237366.75)" xlink:href="#n"/></defs><title>Zeichenfläche 1</title><g style="clip-path:url(#a)"><path d="M48.7,32.94s17-18.62,28.71-26.34c3.74-2.46,31.59-17,49.46,33C136.66,67,136.83,87.4,114.59,96.1c-13.31,5.21-8.56,15-8.56,15" style="fill:url(#b)"/></g><path d="M75.79,4.33c-11.92,7.83-28.56,26-29.26,26.8A2.67,2.67,0,0,0,46.81,35a3,3,0,0,0,4.05-.27C51,34.56,67.73,16.29,79,8.86A23.27,23.27,0,0,1,97.69,6.53c10.57,3.35,19.73,15.11,26.47,34,10.74,30.06,7.55,45.93-10.65,53-5.25,2.06-8.71,5-10.28,8.87a12.83,12.83,0,0,0,.2,9.81,2.91,2.91,0,0,0,3.78,1.32,2.71,2.71,0,0,0,1.43-3.62,7.52,7.52,0,0,1,0-5.57c1-2.34,3.36-4.27,7.07-5.71C143.15,87.9,137.55,61,129.6,38.73,122.14,17.87,112,5.28,99.5,1.31a29.12,29.12,0,0,0-23.71,3" style="fill:#652032"/><g style="clip-path:url(#c)"><path d="M317.83,43.72h35.63c3,0,5.41,2,5.41,4.39h0c0,2.42-2.42,4.38-5.41,4.38h-28l-7.66-8.77" style="fill:url(#d)"/></g><path d="M353.46,46.47c1.5,0,2.54.86,2.54,1.64s-1,1.64-2.54,1.64H326.84L324,46.47h29.48ZM311.68,41l12.47,14.27h29.31c4.57,0,8.28-3.2,8.28-7.13S358,41,353.46,41H311.68" style="fill:#652032"/><path d="M364.49,33.53c4.9-2.31,10.62-1.75,12.8,1.26s0,7.33-4.94,9.66-17.71,5.11-19.88,2.09,7.13-10.69,12-13" style="fill:#dbbf4d"/><path d="M365.75,36h0c3.8-1.79,8-1.29,9.16.36a1.82,1.82,0,0,1,.24,1.63c-.31,1.15-1.54,2.8-4.09,4-4.72,2.23-13.11,3.54-15.7,2.91,1-2.13,6.2-6.92,10.39-8.9Zm-2.54-4.93h0c-4.1,1.93-12.43,8.09-13.74,13l.63,4.06c3.94,5.48,19.81.57,23.52-1.18s6.27-4.5,7.1-7.55a7.11,7.11,0,0,0-1.07-6.13c-3-4.16-10.22-5.11-16.44-2.17" style="fill:#652032"/><path d="M373.19,51.32c5.25,1.74,8.18,5.77,6.56,9s-7.21,4.44-12.45,2.69-15.78-8.28-14.15-11.51,14.81-1.93,20.05-.19" style="fill:#dbbf4d"/><path d="M374.13,48.73h0Zm-1.89,5.19h0c2.82.94,4.37,2.5,4.87,3.65a1.7,1.7,0,0,1,0,1.57c-.86,1.72-4.87,2.63-8.92,1.28-4.63-1.53-10.86-5.85-12-7.84,2.17-.72,11-.35,16,1.33Zm-21.7-3.6v4c2,4.66,11.36,9.84,15.8,11.31,6.68,2.22,13.7.42,16-4.09a6.87,6.87,0,0,0,.73-3.08,7.52,7.52,0,0,0-.64-3c-1.29-3-4.31-5.4-8.29-6.72s-20.58-4.38-23.58,1.59" style="fill:#652032"/><path d="M374,41.36c7.79-.05,14.14,2.74,14.17,6.23s-6.24,6.36-14,6.41-25.41-2.65-25.45-6.14,17.54-6.44,25.32-6.5" style="fill:#dbbf4d"/><path d="M385.25,47.61a1.31,1.31,0,0,1-.47.73c-1.41,1.37-5.37,2.87-10.71,2.9-6.68,0-17.25-1.75-21.32-3.42,4-1.73,14.56-3.67,21.23-3.72h0c7.38,0,11.27,2.58,11.28,3.5Zm-11.31-9h0c-5.66,0-22.47,2-26.79,6.21l-1.39,3.07c.08,8.08,28.06,8.86,28.34,8.86,6.27,0,11.93-1.78,14.77-4.55A6.36,6.36,0,0,0,391,47.56c0-5.24-7.22-9-17.06-9" style="fill:#652032"/><g style="clip-path:url(#e)"><path d="M152.76,130.94v70.59c0,17.41-17.41,23.64-38.89,23.64h0C92.4,225.18,75,218.94,75,201.53V130.11" style="fill:url(#f)"/></g><path d="M72.12,130.11v71.42c0,17,14.83,26.39,41.76,26.39s41.76-9.37,41.76-26.39V130.94a2.88,2.88,0,0,0-5.75,0v70.59c0,17.27-19.58,20.89-36,20.89s-36-3.62-36-20.89V130.11a2.88,2.88,0,0,0-5.75,0" style="fill:#652032"/><path d="M92,201.45c0,7-4.12,12.77-9.19,12.77s-9.2-5.72-9.2-12.77,4.12-23,9.2-23,9.19,15.93,9.19,23" style="fill:#dbbf4d"/><path d="M74.6,201.45c0-7.67,4.36-22.07,8.24-22.07s8.24,14.4,8.24,22.07c0,6.54-3.69,11.85-8.24,11.85S74.6,208,74.6,201.45Zm-1.92,0c0,7.54,4.55,13.69,10.15,13.69S93,209,93,201.45c0-6.89-4-23.9-10.15-23.9s-10.15,17-10.15,23.9" style="fill:#652032"/><path d="M76.12,202.72c0-6.78,5-19,8.61-19a1.68,1.68,0,0,1,1,.43c-.91-2.15-1.95-3.57-3.05-3.57-3.64,0-6.58,15.35-6.58,22.13" style="fill:#e8ca5c"/><path d="M96.37,208.23c0,5.44-3.27,9.85-7.31,9.85s-7.32-4.41-7.32-9.85,3.28-17.75,7.32-17.75,7.31,12.29,7.31,17.75" style="fill:#dbbf4d"/><path d="M82.7,208.23c0-5.7,3.44-16.83,6.36-16.83s6.35,11.12,6.35,16.83c0,4.93-2.85,8.94-6.35,8.94S82.7,213.15,82.7,208.23Zm-1.91,0c0,5.94,3.71,10.77,8.28,10.77s8.27-4.83,8.27-10.77c0-4.65-2.93-18.66-8.27-18.66s-8.28,14-8.28,18.66" style="fill:#652032"/><path d="M84.82,205c-.37-3.88,3.06-10.31,5.73-10.78a1.49,1.49,0,0,1,.76.13c-.78-1.11-1.67-2-2.43-1.65-2.64,1.25-4.44,8.44-4.07,12.3" style="fill:#e8ca5c"/><g style="clip-path:url(#g)"><path d="M312.73,131.8v70.59c0,17.41-17.41,23.64-38.89,23.64h0C252.37,226,235,219.8,235,202.39V131" style="fill:url(#h)"/></g><path d="M232.08,131v71.42c0,17,14.83,26.39,41.76,26.39,12.12,0,21.84-1.9,28.89-5.64,8.42-4.47,12.87-11.64,12.87-20.75V131.8a2.87,2.87,0,0,0-5.74,0v70.59c0,7.19-3.24,12.41-9.92,15.95-6.1,3.23-15.13,4.95-26.1,4.95-16.43,0-36-3.63-36-20.89V131a2.88,2.88,0,0,0-5.75,0" style="fill:#652032"/><path d="M252,202.31c0,7-4.11,12.78-9.19,12.78s-9.2-5.73-9.2-12.78,4.11-23,9.2-23,9.19,15.93,9.19,23" style="fill:#cfb642"/><path d="M234.57,202.31a49.05,49.05,0,0,1,2.65-13.85c1.73-5.07,3.88-8.22,5.6-8.22,3.87,0,8.24,14.39,8.24,22.06,0,6.54-3.69,11.86-8.24,11.86s-8.24-5.32-8.24-11.86Zm.83-14.42a50.94,50.94,0,0,0-2.74,14.42c0,7.55,4.56,13.69,10.16,13.69S253,209.85,253,202.31c0-6.89-4-23.9-10.15-23.9-3.45,0-5.94,5.15-7.42,9.48" style="fill:#652032"/><path d="M236.09,203.59c0-6.79,5-19,8.61-19a1.71,1.71,0,0,1,1,.44c-.91-2.15-1.95-3.57-3-3.57-3.64,0-6.57,15.36-6.57,22.14" style="fill:#dabe49"/><path d="M256.34,209.09c0,5.45-3.27,9.85-7.31,9.85s-7.31-4.4-7.31-9.85S245,191.34,249,191.34s7.31,12.29,7.31,17.74" style="fill:#cfb642"/><path d="M242.67,209.09c0-5.7,3.43-16.83,6.36-16.83s6.35,11.12,6.35,16.83c0,4.93-2.85,8.94-6.35,8.94S242.67,214,242.67,209.09Zm-1.92,0c0,5.94,3.71,10.77,8.27,10.77s8.27-4.83,8.27-10.77c0-4.64-2.94-18.66-8.27-18.66s-8.27,14-8.27,18.66" style="fill:#652032"/><path d="M244.79,205.85c-.37-3.87,3.06-10.31,5.73-10.78a1.45,1.45,0,0,1,.76.13c-.78-1.11-1.67-2-2.43-1.65-2.65,1.25-4.44,8.44-4.06,12.3" style="fill:#dabe49"/><g style="clip-path:url(#i)"><path d="M120,34.53C135.19,59,133.58,79.59,113.4,90.4c-12.08,6.48-5.43,15-5.43,15" style="fill:url(#j)"/></g><path d="M118.58,32.16a2.68,2.68,0,0,0-1,3.77C126,49.52,129,61.83,126.31,71.52,124.37,78.4,119.55,84,112,88c-4.78,2.56-7.63,5.79-8.47,9.59a12.23,12.23,0,0,0,2.14,9.48,3,3,0,0,0,4,.57,2.68,2.68,0,0,0,.63-3.83,6.88,6.88,0,0,1-1.13-5.11c.51-2.17,2.41-4.15,5.65-5.89,9-4.81,14.7-11.49,17.05-19.86,3.13-11.15-.1-24.92-9.34-39.82a3,3,0,0,0-3.93-1" style="fill:#080604"/><g style="clip-path:url(#k)"><path d="M249.52,17.21s-66.15-.29-158,2.73S3,55.63,2.87,102.56V215.43c0,9.55,8.34,13.4,18.63,13.4s18.64-3.85,18.64-13.4c0,0,2.37-32.25,4.42-51.87C49.15,92.29,155.9,175.28,219,171.41c57.3-3.52,123.43-23.14,123.43-69.76s-29.57-84.43-92.86-84.43" style="fill:url(#l)"/></g><path d="M5.75,215.43V102.56s0-5,0-5c0-43.41,0-72.08,85.84-74.9,90.69-3,157.64-2.73,157.89-2.73h0c28.89,0,52.44,8.26,68.09,23.89,14.33,14.3,21.9,34.29,21.9,57.8,0,50.32-75.24,64.22-120.74,67-23.95,1.47-72.19-10.28-97.12-20.64-27.94-11.61-52.06-21.64-66.91-12.94-7.85,4.6-12.11,13.86-13,28.31-2,19.33-4.4,51.52-4.42,51.85,0,9.46-9.89,10.84-15.78,10.84S5.75,224.7,5.75,215.43ZM91.4,17.19C0,20.19,0,52.65,0,97.58V215.43c0,10.11,8,16.15,21.51,16.15S43,225.54,43,215.43c0-.13,2.39-32.25,4.41-51.6.81-12.63,4.19-20.46,10.31-24.06,12.31-7.21,36.26,2.75,61.62,13.29,25.52,10.61,74.44,22.64,99.77,21.08,67.79-4.17,126.12-29.92,126.12-72.51,0-25-8.13-46.26-23.5-61.61C305,23.31,280,14.46,249.52,14.46h0c-.25,0-67.27-.26-158.16,2.73" style="fill:#652032"/><g style="clip-path:url(#m)"><path d="M5.38,105.66C5.48,116.26,4,208.84,9.87,214.4,8,210.3,12.07,120.6,12,115l-.05-3.3V107a48,48,0,0,1-6.61-3l0,1.67" style="fill:url(#n)"/></g><g style="clip-path:url(#o)"><path d="M249.49,19.32S183.89,19,94,22,5.48,57.79,5.48,102l0,1.63a46.88,46.88,0,0,0,6.45,3c0-41.8,1.81-72.47,88.52-75.32,89.89-3,155.5-2.67,155.5-2.67,34.38,0,58,11.51,72.78,29.47-13.57-23.24-39.25-38.79-79.26-38.79" style="fill:url(#p)"/></g><g style="clip-path:url(#q)"><path d="M177.18,163.33V213.6c0,17.41-17.42,23.66-38.89,23.66h0c-21.48,0-38.89-6.25-38.89-23.66V137.08" style="fill:url(#r)"/></g><path d="M96.53,137.08V213.6c0,17,14.83,26.4,41.76,26.4s41.77-9.38,41.77-26.4V163.33a2.88,2.88,0,0,0-5.75,0V213.6c0,17.28-19.59,20.91-36,20.91s-36-3.63-36-20.91V137.08a2.88,2.88,0,0,0-5.75,0" style="fill:#652032"/><path d="M123.86,218.47a12.28,12.28,0,0,1-24.54,0c0-6.56,5.49-21.35,12.27-21.35s12.27,14.8,12.27,21.35" style="fill:#dbbf4d"/><path d="M100.28,218.47c0-6.38,5.47-20.44,11.31-20.44s11.31,14.06,11.31,20.44a11.32,11.32,0,0,1-22.63,0Zm-1.92,0a13.24,13.24,0,0,0,26.46,0c0-6.64-5.58-22.28-13.23-22.28s-13.23,15.63-13.23,22.28" style="fill:#652032"/><path d="M101.41,219.26c0-5.86,6.87-16.4,11.9-16.4a3.19,3.19,0,0,1,1.41.38c-1.27-1.85-2.7-3.09-4.21-3.09-5,0-9.09,13.25-9.09,19.1" style="fill:#e8ca5c"/><path d="M133.86,219.4c0,8.64-5.69,15.66-12.7,15.66s-12.71-7-12.71-15.66,5.69-28.18,12.71-28.18,12.7,19.53,12.7,28.18" style="fill:#dbbf4d"/><path d="M109.4,219.4c0-8.52,5.69-27.26,11.76-27.26s11.75,18.74,11.75,27.26c0,8.13-5.27,14.74-11.75,14.74S109.4,227.53,109.4,219.4Zm-1.92,0c0,9.14,6.13,16.58,13.67,16.58s13.66-7.44,13.66-16.58c0-8.68-5.77-29.09-13.66-29.09s-13.67,20.41-13.67,29.09" style="fill:#652032"/><path d="M111.87,221c0-8.33,6.88-23.29,11.9-23.29a2.52,2.52,0,0,1,1.41.53c-1.26-2.64-2.7-4.38-4.21-4.38-5,0-9.09,18.83-9.09,27.14" style="fill:#e8ca5c"/><path d="M140.53,224.05c0,6.11-4.09,11.07-9.15,11.07s-9.14-5-9.14-11.07,4.09-20,9.14-20,9.15,13.82,9.15,20" style="fill:#dbbf4d"/><path d="M123.2,224.05c0-6.62,4.34-19,8.19-19s8.19,12.42,8.19,19c0,5.6-3.67,10.15-8.19,10.15S123.2,229.65,123.2,224.05Zm-1.92,0c0,6.61,4.54,12,10.1,12s10.1-5.38,10.1-12c0-6-4-20.88-10.1-20.88s-10.1,14.86-10.1,20.88" style="fill:#652032"/><path d="M126.09,220.4c-.46-4.37,3.82-11.6,7.16-12.13a1.9,1.9,0,0,1,1,.14c-1-1.26-2.09-2.26-3-1.86-3.31,1.41-5.55,9.49-5.08,13.84" style="fill:#e8ca5c"/><g style="clip-path:url(#s)"><path d="M337.19,128.78v82.85c0,17.4-17.42,23.65-38.89,23.65h0c-21.48,0-38.88-6.25-38.88-23.65V164" style="fill:url(#t)"/></g><path d="M334.31,128.78v82.85c0,17.28-19.59,20.9-36,20.9s-36-3.62-36-20.9V164a2.88,2.88,0,0,0-5.75,0v47.6c0,17,14.83,26.4,41.76,26.4s41.76-9.38,41.76-26.4V128.78a2.88,2.88,0,0,0-5.75,0" style="fill:#652032"/><path d="M283.88,216.51a12.28,12.28,0,0,1-24.54,0c0-6.56,5.49-21.36,12.27-21.36s12.27,14.8,12.27,21.36" style="fill:#dbbf4d"/><path d="M260.29,216.51c0-6.39,5.47-20.44,11.31-20.44s11.32,14.05,11.32,20.44a11.32,11.32,0,0,1-22.63,0Zm-1.92,0a13.24,13.24,0,0,0,26.46,0c0-6.64-5.59-22.27-13.23-22.27s-13.23,15.63-13.23,22.27" style="fill:#652032"/><path d="M261.43,217.28c0-5.86,6.87-16.39,11.9-16.39a3.22,3.22,0,0,1,1.41.38c-1.26-1.85-2.69-3.08-4.21-3.08-5,0-9.09,13.25-9.09,19.1" style="fill:#e8ca5c"/><path d="M293.87,217.43c0,8.64-5.69,15.67-12.71,15.67s-12.71-7-12.71-15.67,5.69-28.17,12.71-28.17,12.71,19.52,12.71,28.17" style="fill:#dbbf4d"/><path d="M269.41,217.43c0-8.52,5.68-27.26,11.76-27.26s11.75,18.74,11.75,27.26c0,8.13-5.27,14.75-11.75,14.75S269.41,225.56,269.41,217.43Zm-1.92,0c0,9.14,6.13,16.58,13.67,16.58s13.67-7.44,13.67-16.58c0-8.68-5.77-29.09-13.67-29.09s-13.67,20.42-13.67,29.09" style="fill:#652032"/><path d="M271.88,219c0-8.33,6.88-23.29,11.9-23.29a2.53,2.53,0,0,1,1.41.53c-1.26-2.64-2.69-4.38-4.21-4.38-5,0-9.09,18.82-9.09,27.14" style="fill:#e8ca5c"/><path d="M300.54,222.08c0,6.12-4.09,11.07-9.14,11.07s-9.14-5-9.14-11.07,4.09-20,9.14-20,9.14,13.82,9.14,20" style="fill:#dbbf4d"/><path d="M283.21,222.08c0-6.62,4.34-19,8.19-19s8.19,12.42,8.19,19c0,5.6-3.68,10.15-8.19,10.15s-8.19-4.55-8.19-10.15Zm-1.92,0c0,6.61,4.53,12,10.1,12s10.1-5.37,10.1-12c0-6-4-20.88-10.1-20.88s-10.1,14.86-10.1,20.88" style="fill:#652032"/><path d="M286.1,218.43c-.46-4.37,3.82-11.6,7.16-12.13a1.88,1.88,0,0,1,1,.14c-1-1.26-2.09-2.25-3-1.86-3.31,1.41-5.54,9.49-5.08,13.85" style="fill:#e8ca5c"/><path d="M27.24,56.53a2.9,2.9,0,0,0,.81,4.2A3.36,3.36,0,0,0,32.52,60c5.78-7.79,18.78-9.93,25-7.72a3.62,3.62,0,0,0,3.47-.44c.68-.68.24-1.59-1-2-8.46-3-25.06-3.58-32.71,6.74" style="fill:#652032"/><path d="M52.28,90.76c-5.34,1.12-10-1.85-10.5-6.61s3.49-9.54,8.83-10.67,10,1.83,10.51,6.61S57.63,89.63,52.28,90.76Zm11-11.31c-.53-5.56-6.09-9-12.42-7.66s-11,6.9-10.49,12.45,6.09,9,12.42,7.67,11-6.9,10.5-12.46" style="fill:#652032"/><path d="M60.78,80.47c.41,4.2-3.05,8.4-7.73,9.38S44.25,88.23,43.83,84s3.06-8.39,7.73-9.38,8.81,1.61,9.22,5.81" style="fill:#fce2dc"/><path d="M60.1,80.51c-1.27-3.2-4.63-5.05-7.48-4.16a4.67,4.67,0,0,0-3.06,3.1l4,2L49.89,84c1.36,3,4.56,4.75,7.33,3.89s4.15-4.21,2.88-7.41" style="fill:#652032"/><path d="M57.17,79.14c.71-.1,1.54.75,1.85,1.93s0,2.21-.75,2.32-1.55-.75-1.86-1.93,0-2.2.76-2.32" style="fill:#fff"/><path d="M45.58,74.33c-5,3.82-6.57,9.38-3.2,12.52-.29-.12.34.69.07.53-5.31-2.92-6.2-11.6-1.31-16.7,4.2-4.39,16.8-7.64,16.71-5.95-.52,1.94-4.21,4.4-8.79,7.08a27.67,27.67,0,0,0-3.48,2.51" style="fill:#652032"/><path d="M174.77,119.42a2,2,0,0,1-1.78-1.09l-9.57-18.78h-8.15v17.87a2,2,0,0,1-2,2h-9.66a2,2,0,0,1-2-2V66.89a2,2,0,0,1,2-2H167.4c6,0,10.61,1.42,13.56,4.23s4.5,7.2,4.5,13a19.14,19.14,0,0,1-2.71,10.58,12.59,12.59,0,0,1-5.67,4.8l10.33,19a2,2,0,0,1-1.76,3Zm-9.66-32.81c3.59,0,5-.64,5.47-1,.73-.56,1.1-1.69,1.1-3.37s-.36-2.77-1.06-3.32c-.48-.37-1.83-1-5.5-1h-9.84v8.72Z" style="fill:#652032"/><path d="M167.4,66.89q8.31,0,12.19,3.68t3.88,11.52a17.12,17.12,0,0,1-2.39,9.49,10.86,10.86,0,0,1-6.89,4.74l11.47,21.11H174.77L164.65,97.55H153.27v19.87h-9.66V66.89H167.4M153.27,88.61h11.84q4.81,0,6.69-1.44t1.88-5q0-3.47-1.83-4.9t-6.73-1.43H153.27V88.61M167.4,62.89H143.62a4,4,0,0,0-4,4v50.53a4,4,0,0,0,4,4h9.66a4,4,0,0,0,4-4V101.55h4.92l9,17.68a4,4,0,0,0,3.56,2.18h10.88a4,4,0,0,0,3.51-5.91L179.81,98.3a14.6,14.6,0,0,0,4.62-4.55,21.08,21.08,0,0,0,3-11.67c0-6.34-1.72-11.19-5.12-14.42S174,62.89,167.4,62.89Zm-10.12,17h7.84c3.37,0,4.28.58,4.29.59a3.74,3.74,0,0,1,.28,1.74,3.27,3.27,0,0,1-.32,1.78s-.89.61-4.25.61h-7.84V79.9Z" style="fill:#fff"/><path d="M209.12,119.42a29.89,29.89,0,0,1-9.12-1.11,18.57,18.57,0,0,1-6.52-3.82,20.92,20.92,0,0,1-5.86-8.89A37.7,37.7,0,0,1,185.75,93c0-9.37,1.93-16.46,5.74-21.06s9.93-7.1,17.92-7.1h16.06a2,2,0,0,1,2,2v8.63a2,2,0,0,1-2,2H209.59c-3.29,0-5.57,1.07-6.95,3.26-1.55,2.46-2.33,6.74-2.33,12.72,0,6.33,1.16,9.22,2.14,10.53,1.28,1.72,3.69,2.6,7.15,2.6h15.88a2,2,0,0,1,2,2v8.8a2,2,0,0,1-2,2Z" style="fill:#652032"/><path d="M225.47,66.89v8.63H209.59q-6,0-8.64,4.19T198.31,93.5q0,8.32,2.53,11.72t8.75,3.4h15.88v8.8H209.12a28.3,28.3,0,0,1-8.5-1,16.51,16.51,0,0,1-5.81-3.42,18.86,18.86,0,0,1-5.3-8.06A35.56,35.56,0,0,1,187.75,93q0-13.41,5.28-19.78t16.38-6.38h16.06m0-4H209.41c-8.61,0-15.16,2.63-19.46,7.82-4.17,5-6.2,12.34-6.2,22.33a39.66,39.66,0,0,0,2,13.22,22.89,22.89,0,0,0,6.43,9.73,20.53,20.53,0,0,0,7.2,4.21,31.78,31.78,0,0,0,9.75,1.21h16.34a4,4,0,0,0,4-4v-8.8a4,4,0,0,0-4-4H209.59c-2.79,0-4.66-.6-5.54-1.79-.65-.87-1.74-3.25-1.74-9.33,0-7,1.1-10.19,2-11.65.68-1.08,1.89-2.33,5.26-2.33h15.88a4,4,0,0,0,4-4V66.89a4,4,0,0,0-4-4Z" style="fill:#fff"/><path d="M251.56,120.49c-8.45,0-14.8-2.42-18.88-7.2s-6-12-6-21.65c0-9.15,2.08-16.12,6.17-20.72s10.46-7,18.75-7,14.67,2.39,18.79,7.11,6.1,11.76,6.1,21.15-2.05,16.52-6.09,21.18S259.91,120.49,251.56,120.49Zm0-43.93c-3.49,0-6,1.12-7.66,3.43-1.79,2.48-2.7,6.42-2.7,11.72,0,5.79.88,10,2.63,12.57,1.61,2.34,4.13,3.48,7.73,3.48s6.07-1.13,7.71-3.47c1.78-2.52,2.68-6.6,2.68-12.13S261,82.52,259.27,80C257.62,77.68,255.1,76.55,251.56,76.55Z" style="fill:#652032"/><path d="M251.56,65.89q11.68,0,17.29,6.43t5.61,19.83q0,13.41-5.61,19.87t-17.29,6.46q-11.81,0-17.36-6.5t-5.56-20.35q0-13,5.67-19.39t17.25-6.36m0,43.86q6.3,0,9.35-4.31t3-13.29q0-9-3-13.3t-9.35-4.3q-6.21,0-9.29,4.26T239.2,91.71q0,9.35,3,13.7t9.38,4.35m0-47.86c-8.88,0-15.69,2.59-20.24,7.7s-6.68,12.39-6.68,22c0,10.32,2.13,17.82,6.52,23s11.35,7.9,20.4,7.9,15.79-2.64,20.31-7.84c4.37-5,6.58-12.6,6.58-22.49s-2.22-17.45-6.59-22.46c-4.52-5.18-11.34-7.8-20.3-7.8Zm0,43.86c-3.85,0-5.31-1.49-6.08-2.61-1-1.52-2.28-4.73-2.28-11.44,0-4.8.8-8.45,2.32-10.55.81-1.12,2.31-2.6,6-2.6s5.29,1.49,6.08,2.61c1.05,1.49,2.31,4.6,2.31,11s-1.26,9.49-2.31,11c-.79,1.12-2.29,2.62-6.08,2.62Z" style="fill:#fff"/><path d="M309.33,119.42a2,2,0,0,1-1.78-1.08L291.68,87.61,292,117.4a2,2,0,0,1-2,2h-9.91a2,2,0,0,1-2-2V66.89a2,2,0,0,1,2-2h12.22A2,2,0,0,1,294.1,66L309,94.77l-.36-27.86a2,2,0,0,1,2-2h9.88a2,2,0,0,1,2,2v50.53a2,2,0,0,1-2,2Z" style="fill:#652032"/><path d="M320.55,66.89v50.53H309.33L289.58,79.2l.44,38.23h-9.91V66.89h12.22l18.81,36.3-.47-36.3h9.88m0-4h-9.87a4,4,0,0,0-4,4.05l.25,19.42L295.88,65a4,4,0,0,0-3.55-2.16H280.11a4,4,0,0,0-4,4v50.53a4,4,0,0,0,4,4H290a4,4,0,0,0,4-4L293.77,96l12,23.23a4,4,0,0,0,3.55,2.16h11.22a4,4,0,0,0,4-4V66.89a4,4,0,0,0-4-4Z" style="fill:#fff"/><g style="clip-path:url(#u)"><path d="M76,25.75S98.74,10.21,113.13,4.88c4.59-1.7,37.68-10.37,43,46.31,2.93,31-2.35,52.47-28,56.35-15.35,2.33-13,13.68-13,13.68" style="fill:url(#v)"/></g><path d="M112.09,2.32C97.54,7.71,75.24,22.86,74.29,23.51a2.67,2.67,0,0,0-.67,3.83,3,3,0,0,0,4,.64c.22-.15,22.66-15.39,36.54-20.53.43-.16,10.65-3.83,20.45,2,10.21,6.07,16.67,20.59,18.7,42,3.23,34.22-4.42,50.18-25.59,53.39-6,.91-10.37,3.19-13,6.8a13.64,13.64,0,0,0-2.35,10.14,2.86,2.86,0,0,0,3.36,2.15A2.77,2.77,0,0,0,118,120.7a8.39,8.39,0,0,1,1.47-6c1.7-2.29,4.77-3.79,9.13-4.45,31.48-4.76,32.79-34.2,30.42-59.31-2.23-23.53-9.43-39.06-21.39-46.17s-24.21-3-25.56-2.46" style="fill:#652032"/><g style="clip-path:url(#w)"><path d="M99.27,20.64c25.8-16,40.12-7.82,40.12-7.82a26.68,26.68,0,0,0-26.62-5.76c-14.34,5.33-42,25-42,25S67,38.65,74.44,37.22c0,0,16.23-11.25,24.83-16.58" style="fill:url(#x)"/></g><path d="M90,97.14c-.22,13-4.56,24.82-11.32,30.85a13.88,13.88,0,0,1-9.91,3.93,1.83,1.83,0,1,0-.2,3.66,17.68,17.68,0,0,0,12.72-4.91c7.5-6.69,12.3-19.52,12.54-33.48a1.87,1.87,0,0,0-1.88-1.86A1.89,1.89,0,0,0,90,97.14" style="fill:#652032"/><path d="M98.25,87.86c-1.44,3.28-4,5.37-6.92,5.72A8.78,8.78,0,0,1,83.49,90a2,2,0,0,0-2.68-.36,1.78,1.78,0,0,0-.38,2.56,12.63,12.63,0,0,0,11.38,5c4.36-.52,8-3.42,10-7.94a1.81,1.81,0,0,0-1-2.4,2,2,0,0,0-2.51,1" style="fill:#652032"/></svg>